<svg class="main-svg" xmlns="http://www.w3.org/2000/svg" xmlns:xlink="http://www.w3.org/1999/xlink" width="700" height="500" style="" viewBox="0 0 700 500"><rect x="0" y="0" width="700" height="500" style="fill: rgb(0, 0, 0); fill-opacity: 0;"/><defs id="defs-f33118"><g class="clips"><clipPath id="clipf33118xyplot" class="plotclip"><rect width="545" height="243"/></clipPath><clipPath class="axesclip" id="clipf33118x"><rect x="105" y="0" width="545" height="500"/></clipPath><clipPath class="axesclip" id="clipf33118y"><rect x="0" y="50" width="700" height="243"/></clipPath><clipPath class="axesclip" id="clipf33118xy"><rect x="105" y="50" width="545" height="243"/></clipPath></g><g class="gradients"/><g class="patterns"/></defs><g class="bglayer"><rect class="bg" x="100" y="45" width="555" height="253" style="fill: rgb(0, 0, 0); fill-opacity: 0; stroke-width: 0;"/></g><g class="layer-below"><g class="imagelayer"/><g class="shapelayer"/></g><g class="cartesianlayer"><g class="subplot xy"><g class="layer-subplot"><g class="shapelayer"/><g class="imagelayer"/></g><g class="gridlayer"><g class="x"/><g class="y"><path class="ygrid crisp" transform="translate(0,275.38)" d="M105,0h545" style="stroke: rgb(240, 240, 240); stroke-opacity: 1; stroke-width: 1px;"/><path class="ygrid crisp" transform="translate(0,220.71)" d="M105,0h545" style="stroke: rgb(240, 240, 240); stroke-opacity: 1; stroke-width: 1px;"/><path class="ygrid crisp" transform="translate(0,166.03)" d="M105,0h545" style="stroke: rgb(240, 240, 240); stroke-opacity: 1; stroke-width: 1px;"/><path class="ygrid crisp" transform="translate(0,111.36)" d="M105,0h545" style="stroke: rgb(240, 240, 240); stroke-opacity: 1; stroke-width: 1px;"/><path class="ygrid crisp" transform="translate(0,56.68)" d="M105,0h545" style="stroke: rgb(240, 240, 240); stroke-opacity: 1; stroke-width: 1px;"/></g></g><g class="zerolinelayer"/><path class="xlines-below"/><path class="ylines-below"/><g class="overlines-below"/><g class="xaxislayer-below"/><g class="yaxislayer-below"/><g class="overaxes-below"/><g class="plot" transform="translate(105,50)" clip-path="url(#clipf33118xyplot)"><g class="scatterlayer mlayer"><g class="trace scatter trace0cf07d" style="stroke-miterlimit: 2; opacity: 1;"><g class="fills"/><g class="errorbars"/><g class="lines"><path class="js-line" d="M0,176.18L23.7,198.05L47.39,165.24L71.09,151.57L94.78,170.71L118.48,148.84L142.17,146.1L165.87,110.57L189.57,151.57L213.26,176.18L236.96,126.97L260.65,75.03L284.35,135.17L308.04,143.37L331.74,148.84L355.43,116.03L379.13,151.57L402.83,124.23L426.52,129.7L450.22,116.03L473.91,132.44L497.61,146.1L521.3,148.84L545,102.36" style="vector-effect: non-scaling-stroke; fill: none; stroke: rgb(0, 150, 81); stroke-opacity: 1; stroke-width: 6px; opacity: 1;"/></g><g class="points"/><g class="text"/></g><g class="trace scatter tracedd0e17" style="stroke-miterlimit: 2; opacity: 1;"><g class="fills"/><g class="errorbars"/><g class="lines"><path class="js-line" d="M0,178.91L23.7,214.45L47.39,176.18L71.09,189.84L94.78,198.05L118.48,219.92L142.17,217.18L165.87,157.04L189.57,189.84L213.26,225.38L236.96,154.31L260.65,162.51L284.35,208.98L308.04,206.25L331.74,165.24L355.43,121.5L379.13,206.25L402.83,230.85L426.52,178.91L450.22,102.36L473.91,200.78L497.61,198.05L521.3,135.17L545,12.15" style="vector-effect: non-scaling-stroke; fill: none; stroke: rgb(252, 179, 22); stroke-opacity: 1; stroke-width: 6px; opacity: 1;"/></g><g class="points"/><g class="text"/></g></g></g><g class="overplot"/><path class="xlines-above crisp" style="fill: none;" d="M0,0"/><path class="ylines-above crisp" style="fill: none;" d="M0,0"/><g class="overlines-above"/><g class="xaxislayer-above"><g class="xtick"><text text-anchor="end" x="0" y="321" transform="translate(105,0) rotate(-45,0,310)" style="font-family: 'Open Sans', verdana, arial, sans-serif; font-size: 22px; fill: rgb(87, 87, 87); fill-opacity: 1; white-space: pre; opacity: 1;"><tspan class="line" dy="0em" x="0" y="321"><tspan style="font-weight:bold">2018Q2</tspan></tspan><tspan class="line" dy="1.3em" x="0" y="321"></tspan></text></g><g class="xtick"><text text-anchor="end" x="0" y="321" transform="translate(176.09,0) rotate(-45,0,310)" style="font-family: 'Open Sans', verdana, arial, sans-serif; font-size: 22px; fill: rgb(87, 87, 87); fill-opacity: 1; white-space: pre; opacity: 1;"><tspan class="line" dy="0em" x="0" y="321"><tspan style="font-weight:bold">2019Q1</tspan></tspan><tspan class="line" dy="1.3em" x="0" y="321"></tspan></text></g><g class="xtick"><text text-anchor="end" x="0" y="321" transform="translate(247.17,0) rotate(-45,0,310)" style="font-family: 'Open Sans', verdana, arial, sans-serif; font-size: 22px; fill: rgb(87, 87, 87); fill-opacity: 1; white-space: pre; opacity: 1;"><tspan class="line" dy="0em" x="0" y="321"><tspan style="font-weight:bold">2019Q4</tspan></tspan><tspan class="line" dy="1.3em" x="0" y="321"></tspan></text></g><g class="xtick"><text text-anchor="end" x="0" y="321" transform="translate(318.26,0) rotate(-45,0,310)" style="font-family: 'Open Sans', verdana, arial, sans-serif; font-size: 22px; fill: rgb(87, 87, 87); fill-opacity: 1; white-space: pre; opacity: 1;"><tspan class="line" dy="0em" x="0" y="321"><tspan style="font-weight:bold">2020Q3</tspan></tspan><tspan class="line" dy="1.3em" x="0" y="321"></tspan></text></g><g class="xtick"><text text-anchor="end" x="0" y="321" transform="translate(389.35,0) rotate(-45,0,310)" style="font-family: 'Open Sans', verdana, arial, sans-serif; font-size: 22px; fill: rgb(87, 87, 87); fill-opacity: 1; white-space: pre; opacity: 1;"><tspan class="line" dy="0em" x="0" y="321"><tspan style="font-weight:bold">2021Q2</tspan></tspan><tspan class="line" dy="1.3em" x="0" y="321"></tspan></text></g><g class="xtick"><text text-anchor="end" x="0" y="321" transform="translate(460.43,0) rotate(-45,0,310)" style="font-family: 'Open Sans', verdana, arial, sans-serif; font-size: 22px; fill: rgb(87, 87, 87); fill-opacity: 1; white-space: pre; opacity: 1;"><tspan class="line" dy="0em" x="0" y="321"><tspan style="font-weight:bold">2022Q1</tspan></tspan><tspan class="line" dy="1.3em" x="0" y="321"></tspan></text></g><g class="xtick"><text text-anchor="end" x="0" y="321" transform="translate(531.52,0) rotate(-45,0,310)" style="font-family: 'Open Sans', verdana, arial, sans-serif; font-size: 22px; fill: rgb(87, 87, 87); fill-opacity: 1; white-space: pre; opacity: 1;"><tspan class="line" dy="0em" x="0" y="321"><tspan style="font-weight:bold">2022Q4</tspan></tspan><tspan class="line" dy="1.3em" x="0" y="321"></tspan></text></g><g class="xtick"><text text-anchor="end" x="0" y="321" transform="translate(602.61,0) rotate(-45,0,310)" style="font-family: 'Open Sans', verdana, arial, sans-serif; font-size: 22px; fill: rgb(87, 87, 87); fill-opacity: 1; white-space: pre; opacity: 1;"><tspan class="line" dy="0em" x="0" y="321"><tspan style="font-weight:bold">2023Q3</tspan></tspan><tspan class="line" dy="1.3em" x="0" y="321"></tspan></text></g></g><g class="yaxislayer-above"><g class="ytick"><text text-anchor="end" x="99" y="7.699999999999999" transform="translate(0,275.38)translate(0,-14.3)" style="font-family: 'Open Sans', verdana, arial, sans-serif; font-size: 22px; fill: rgb(87, 87, 87); fill-opacity: 1; white-space: pre; opacity: 1;"><tspan class="line" dy="0em" x="99" y="7.699999999999999"><tspan style="font-weight:bold">20</tspan></tspan><tspan class="line" dy="1.3em" x="99" y="7.699999999999999"></tspan></text></g><g class="ytick"><text text-anchor="end" x="99" y="7.699999999999999" style="font-family: 'Open Sans', verdana, arial, sans-serif; font-size: 22px; fill: rgb(87, 87, 87); fill-opacity: 1; white-space: pre; opacity: 1;" transform="translate(0,220.71)translate(0,-14.3)"><tspan class="line" dy="0em" x="99" y="7.699999999999999"><tspan style="font-weight:bold">40</tspan></tspan><tspan class="line" dy="1.3em" x="99" y="7.699999999999999"></tspan></text></g><g class="ytick"><text text-anchor="end" x="99" y="7.699999999999999" style="font-family: 'Open Sans', verdana, arial, sans-serif; font-size: 22px; fill: rgb(87, 87, 87); fill-opacity: 1; white-space: pre; opacity: 1;" transform="translate(0,166.03)translate(0,-14.3)"><tspan class="line" dy="0em" x="99" y="7.699999999999999"><tspan style="font-weight:bold">60</tspan></tspan><tspan class="line" dy="1.3em" x="99" y="7.699999999999999"></tspan></text></g><g class="ytick"><text text-anchor="end" x="99" y="7.699999999999999" style="font-family: 'Open Sans', verdana, arial, sans-serif; font-size: 22px; fill: rgb(87, 87, 87); fill-opacity: 1; white-space: pre; opacity: 1;" transform="translate(0,111.36)translate(0,-14.3)"><tspan class="line" dy="0em" x="99" y="7.699999999999999"><tspan style="font-weight:bold">80</tspan></tspan><tspan class="line" dy="1.3em" x="99" y="7.699999999999999"></tspan></text></g><g class="ytick"><text text-anchor="end" x="99" y="7.699999999999999" style="font-family: 'Open Sans', verdana, arial, sans-serif; font-size: 22px; fill: rgb(87, 87, 87); fill-opacity: 1; white-space: pre; opacity: 1;" transform="translate(0,56.68)translate(0,-14.3)"><tspan class="line" dy="0em" x="99" y="7.699999999999999"><tspan style="font-weight:bold">100</tspan></tspan><tspan class="line" dy="1.3em" x="99" y="7.699999999999999"></tspan></text></g></g><g class="overaxes-above"/></g></g><g class="polarlayer"/><g class="smithlayer"/><g class="ternarylayer"/><g class="geolayer"/><g class="funnelarealayer"/><g class="pielayer"/><g class="iciclelayer"/><g class="treemaplayer"/><g class="sunburstlayer"/><g class="glimages"/><defs id="topdefs-f33118"><g class="clips"/><clipPath id="legendf33118"><rect width="388" height="74" x="0" y="0"/></clipPath></defs><g class="layer-above"><g class="imagelayer"/><g class="shapelayer"/></g><g class="infolayer"><g class="legend" pointer-events="all" transform="translate(105,414.5)"><rect class="bg" shape-rendering="crispEdges" style="stroke: rgb(68, 68, 68); stroke-opacity: 1; fill: rgb(0, 0, 0); fill-opacity: 0; stroke-width: 0px;" width="388" height="74" x="0" y="0"/><g class="scrollbox" transform="" clip-path="url(#legendf33118)"><g class="groups"><g class="traces" style="opacity: 1;" transform="translate(0,20.8)"><text class="legendtext" text-anchor="start" x="40" y="8.58" style="font-family: 'Open Sans', verdana, arial, sans-serif; font-size: 22px; fill: rgb(68, 68, 68); fill-opacity: 1; white-space: pre;"><tspan style="font-weight:bold">Aloittaneet yritykset (lkm)</tspan></text><g class="layers" style="opacity: 1;"><g class="legendfill"/><g class="legendlines"><path class="js-line" d="M5,0h30" style="fill: none; stroke: rgb(0, 150, 81); stroke-opacity: 1; stroke-width: 6px;"/></g><g class="legendsymbols"><g class="legendpoints"/></g></g><rect class="legendtoggle" x="0" y="-15.8" width="373.453125" height="31.6" style="fill: rgb(0, 0, 0); fill-opacity: 0;"/></g><g class="traces" style="opacity: 1;" transform="translate(0,52.400000000000006)"><text class="legendtext" text-anchor="start" x="40" y="8.58" style="font-family: 'Open Sans', verdana, arial, sans-serif; font-size: 22px; fill: rgb(68, 68, 68); fill-opacity: 1; white-space: pre;"><tspan style="font-weight:bold">Lopettaneet yritykset (lkm)</tspan></text><g class="layers" style="opacity: 1;"><g class="legendfill"/><g class="legendlines"><path class="js-line" d="M5,0h30" style="fill: none; stroke: rgb(252, 179, 22); stroke-opacity: 1; stroke-width: 6px;"/></g><g class="legendsymbols"><g class="legendpoints"/></g></g><rect class="legendtoggle" x="0" y="-15.8" width="385.34375" height="31.6" style="fill: rgb(0, 0, 0); fill-opacity: 0;"/></g></g></g><rect class="scrollbar" rx="20" ry="3" width="0" height="0" style="fill: rgb(128, 139, 164); fill-opacity: 1;" x="0" y="0"/></g><g class="g-gtitle"/><g class="g-xtitle"><text class="xtitle" x="377.5" y="430.0044921875" text-anchor="middle" style="font-family: 'Open Sans', verdana, arial, sans-serif; font-size: 22px; fill: rgb(87, 87, 87); opacity: 1; font-weight: normal; white-space: pre;"><tspan style="font-weight:bold"></tspan></text></g><g class="g-ytitle" transform="translate(10.322265625,0)"><text class="ytitle" transform="rotate(-90,11.678124999999994,171.5)" x="11.678124999999994" y="171.5" text-anchor="middle" style="font-family: 'Open Sans', verdana, arial, sans-serif; font-size: 22px; fill: rgb(87, 87, 87); opacity: 1; font-weight: normal; white-space: pre;"><tspan style="font-weight:bold">Lkm</tspan></text></g></g></svg>