<svg class="main-svg" xmlns="http://www.w3.org/2000/svg" xmlns:xlink="http://www.w3.org/1999/xlink" width="700" height="500" style="" viewBox="0 0 700 500"><rect x="0" y="0" width="700" height="500" style="fill: rgb(0, 0, 0); fill-opacity: 0;"/><defs id="defs-678d43"><g class="clips"><clipPath id="clip678d43xyplot" class="plotclip"><rect width="545" height="243"/></clipPath><clipPath class="axesclip" id="clip678d43x"><rect x="105" y="0" width="545" height="500"/></clipPath><clipPath class="axesclip" id="clip678d43y"><rect x="0" y="50" width="700" height="243"/></clipPath><clipPath class="axesclip" id="clip678d43xy"><rect x="105" y="50" width="545" height="243"/></clipPath></g><g class="gradients"/><g class="patterns"/></defs><g class="bglayer"><rect class="bg" x="100" y="45" width="555" height="253" style="fill: rgb(0, 0, 0); fill-opacity: 0; stroke-width: 0;"/></g><g class="layer-below"><g class="imagelayer"/><g class="shapelayer"/></g><g class="cartesianlayer"><g class="subplot xy"><g class="layer-subplot"><g class="shapelayer"/><g class="imagelayer"/></g><g class="gridlayer"><g class="x"/><g class="y"><path class="ygrid crisp" transform="translate(0,189.62)" d="M105,0h545" style="stroke: rgb(240, 240, 240); stroke-opacity: 1; stroke-width: 1px;"/><path class="ygrid crisp" transform="translate(0,127.14)" d="M105,0h545" style="stroke: rgb(240, 240, 240); stroke-opacity: 1; stroke-width: 1px;"/><path class="ygrid crisp" transform="translate(0,64.65)" d="M105,0h545" style="stroke: rgb(240, 240, 240); stroke-opacity: 1; stroke-width: 1px;"/></g></g><g class="zerolinelayer"><path class="yzl zl crisp" transform="translate(0,252.11)" d="M105,0h545" style="stroke: rgb(87, 87, 87); stroke-opacity: 1; stroke-width: 1px;"/></g><path class="xlines-below"/><path class="ylines-below"/><g class="overlines-below"/><g class="xaxislayer-below"/><g class="yaxislayer-below"/><g class="overaxes-below"/><g class="plot" transform="translate(105,50)" clip-path="url(#clip678d43xyplot)"><g class="scatterlayer mlayer"><g class="trace scatter tracef0603f" style="stroke-miterlimit: 2; opacity: 1;"><g class="fills"/><g class="errorbars"/><g class="lines"><path class="js-line" d="M31,37.14L65.37,40.89L99.73,15.9L134.1,102.13L168.46,112.13L202.83,24.65L237.2,184.61L271.56,158.37L305.93,142.12L340.29,129.62L374.66,154.62L409.03,218.35L443.39,227.1" style="vector-effect: non-scaling-stroke; fill: none; stroke: rgb(0, 150, 81); stroke-opacity: 1; stroke-width: 6px; opacity: 1;"/></g><g class="points"><path class="point" transform="translate(31,37.14)" d="M3,0A3,3 0 1,1 0,-3A3,3 0 0,1 3,0Z" style="opacity: 1; stroke-width: 0px; fill: rgb(0, 150, 81); fill-opacity: 1;"/><path class="point" transform="translate(65.37,40.89)" d="M3,0A3,3 0 1,1 0,-3A3,3 0 0,1 3,0Z" style="opacity: 1; stroke-width: 0px; fill: rgb(0, 150, 81); fill-opacity: 1;"/><path class="point" transform="translate(99.73,15.9)" d="M3,0A3,3 0 1,1 0,-3A3,3 0 0,1 3,0Z" style="opacity: 1; stroke-width: 0px; fill: rgb(0, 150, 81); fill-opacity: 1;"/><path class="point" transform="translate(134.1,102.13)" d="M3,0A3,3 0 1,1 0,-3A3,3 0 0,1 3,0Z" style="opacity: 1; stroke-width: 0px; fill: rgb(0, 150, 81); fill-opacity: 1;"/><path class="point" transform="translate(168.46,112.13)" d="M3,0A3,3 0 1,1 0,-3A3,3 0 0,1 3,0Z" style="opacity: 1; stroke-width: 0px; fill: rgb(0, 150, 81); fill-opacity: 1;"/><path class="point" transform="translate(202.83,24.65)" d="M3,0A3,3 0 1,1 0,-3A3,3 0 0,1 3,0Z" style="opacity: 1; stroke-width: 0px; fill: rgb(0, 150, 81); fill-opacity: 1;"/><path class="point" transform="translate(237.2,184.61)" d="M3,0A3,3 0 1,1 0,-3A3,3 0 0,1 3,0Z" style="opacity: 1; stroke-width: 0px; fill: rgb(0, 150, 81); fill-opacity: 1;"/><path class="point" transform="translate(271.56,158.37)" d="M3,0A3,3 0 1,1 0,-3A3,3 0 0,1 3,0Z" style="opacity: 1; stroke-width: 0px; fill: rgb(0, 150, 81); fill-opacity: 1;"/><path class="point" transform="translate(305.93,142.12)" d="M3,0A3,3 0 1,1 0,-3A3,3 0 0,1 3,0Z" style="opacity: 1; stroke-width: 0px; fill: rgb(0, 150, 81); fill-opacity: 1;"/><path class="point" transform="translate(340.29,129.62)" d="M3,0A3,3 0 1,1 0,-3A3,3 0 0,1 3,0Z" style="opacity: 1; stroke-width: 0px; fill: rgb(0, 150, 81); fill-opacity: 1;"/><path class="point" transform="translate(374.66,154.62)" d="M3,0A3,3 0 1,1 0,-3A3,3 0 0,1 3,0Z" style="opacity: 1; stroke-width: 0px; fill: rgb(0, 150, 81); fill-opacity: 1;"/><path class="point" transform="translate(409.03,218.35)" d="M3,0A3,3 0 1,1 0,-3A3,3 0 0,1 3,0Z" style="opacity: 1; stroke-width: 0px; fill: rgb(0, 150, 81); fill-opacity: 1;"/><path class="point" transform="translate(443.39,227.1)" d="M3,0A3,3 0 1,1 0,-3A3,3 0 0,1 3,0Z" style="opacity: 1; stroke-width: 0px; fill: rgb(0, 150, 81); fill-opacity: 1;"/></g><g class="text"/></g><g class="trace scatter trace9e67fd" style="stroke-miterlimit: 2; opacity: 1;"><g class="fills"/><g class="errorbars"/><g class="lines"><path class="js-line" d="M477.76,183.36L512.13,184.61" style="vector-effect: non-scaling-stroke; fill: none; stroke: rgb(0, 150, 81); stroke-opacity: 1; stroke-width: 6px; opacity: 1;"/></g><g class="points"><path class="point" transform="translate(477.76,183.36)" d="M4.5,0A4.5,4.5 0 1,1 0,-4.5A4.5,4.5 0 0,1 4.5,0Z" style="opacity: 1; stroke-width: 6px; fill: rgb(255, 255, 255); fill-opacity: 1; stroke: rgb(0, 150, 81); stroke-opacity: 1;"/><path class="point" transform="translate(512.13,184.61)" d="M4.5,0A4.5,4.5 0 1,1 0,-4.5A4.5,4.5 0 0,1 4.5,0Z" style="opacity: 1; stroke-width: 6px; fill: rgb(255, 255, 255); fill-opacity: 1; stroke: rgb(0, 150, 81); stroke-opacity: 1;"/></g><g class="text"/></g></g></g><g class="overplot"/><path class="xlines-above crisp" style="fill: none;" d="M0,0"/><path class="ylines-above crisp" style="fill: none;" d="M0,0"/><g class="overlines-above"/><g class="xaxislayer-above"><g class="xtick"><text text-anchor="end" x="0" y="321" transform="translate(136,0) rotate(-45,0,310)" style="font-family: 'Open Sans', verdana, arial, sans-serif; font-size: 22px; fill: rgb(87, 87, 87); fill-opacity: 1; white-space: pre; opacity: 1;"><tspan class="line" dy="0em" x="0" y="321"><tspan style="font-weight:bold">2011</tspan></tspan><tspan class="line" dy="1.3em" x="0" y="321"></tspan></text></g><g class="xtick"><text text-anchor="end" x="0" y="321" transform="translate(239.1,0) rotate(-45,0,310)" style="font-family: 'Open Sans', verdana, arial, sans-serif; font-size: 22px; fill: rgb(87, 87, 87); fill-opacity: 1; white-space: pre; opacity: 1;"><tspan class="line" dy="0em" x="0" y="321"><tspan style="font-weight:bold">2014</tspan></tspan><tspan class="line" dy="1.3em" x="0" y="321"></tspan></text></g><g class="xtick"><text text-anchor="end" x="0" y="321" transform="translate(342.2,0) rotate(-45,0,310)" style="font-family: 'Open Sans', verdana, arial, sans-serif; font-size: 22px; fill: rgb(87, 87, 87); fill-opacity: 1; white-space: pre; opacity: 1;"><tspan class="line" dy="0em" x="0" y="321"><tspan style="font-weight:bold">2017</tspan></tspan><tspan class="line" dy="1.3em" x="0" y="321"></tspan></text></g><g class="xtick"><text text-anchor="end" x="0" y="321" transform="translate(445.29,0) rotate(-45,0,310)" style="font-family: 'Open Sans', verdana, arial, sans-serif; font-size: 22px; fill: rgb(87, 87, 87); fill-opacity: 1; white-space: pre; opacity: 1;"><tspan class="line" dy="0em" x="0" y="321"><tspan style="font-weight:bold">2020</tspan></tspan><tspan class="line" dy="1.3em" x="0" y="321"></tspan></text></g><g class="xtick"><text text-anchor="end" x="0" y="321" transform="translate(548.39,0) rotate(-45,0,310)" style="font-family: 'Open Sans', verdana, arial, sans-serif; font-size: 22px; fill: rgb(87, 87, 87); fill-opacity: 1; white-space: pre; opacity: 1;"><tspan class="line" dy="0em" x="0" y="321"><tspan style="font-weight:bold">2023</tspan></tspan><tspan class="line" dy="1.3em" x="0" y="321"></tspan></text></g></g><g class="yaxislayer-above"><g class="ytick"><text text-anchor="end" x="99" y="7.699999999999999" transform="translate(0,252.11)translate(0,-14.3)" style="font-family: 'Open Sans', verdana, arial, sans-serif; font-size: 22px; fill: rgb(87, 87, 87); fill-opacity: 1; white-space: pre; opacity: 1;"><tspan class="line" dy="0em" x="99" y="7.699999999999999"><tspan style="font-weight:bold">0</tspan></tspan><tspan class="line" dy="1.3em" x="99" y="7.699999999999999"></tspan></text></g><g class="ytick"><text text-anchor="end" x="99" y="7.699999999999999" style="font-family: 'Open Sans', verdana, arial, sans-serif; font-size: 22px; fill: rgb(87, 87, 87); fill-opacity: 1; white-space: pre; opacity: 1;" transform="translate(0,189.62)translate(0,-14.3)"><tspan class="line" dy="0em" x="99" y="7.699999999999999"><tspan style="font-weight:bold">50</tspan></tspan><tspan class="line" dy="1.3em" x="99" y="7.699999999999999"></tspan></text></g><g class="ytick"><text text-anchor="end" x="99" y="7.699999999999999" style="font-family: 'Open Sans', verdana, arial, sans-serif; font-size: 22px; fill: rgb(87, 87, 87); fill-opacity: 1; white-space: pre; opacity: 1;" transform="translate(0,127.14)translate(0,-14.3)"><tspan class="line" dy="0em" x="99" y="7.699999999999999"><tspan style="font-weight:bold">100</tspan></tspan><tspan class="line" dy="1.3em" x="99" y="7.699999999999999"></tspan></text></g><g class="ytick"><text text-anchor="end" x="99" y="7.699999999999999" style="font-family: 'Open Sans', verdana, arial, sans-serif; font-size: 22px; fill: rgb(87, 87, 87); fill-opacity: 1; white-space: pre; opacity: 1;" transform="translate(0,64.65)translate(0,-14.3)"><tspan class="line" dy="0em" x="99" y="7.699999999999999"><tspan style="font-weight:bold">150</tspan></tspan><tspan class="line" dy="1.3em" x="99" y="7.699999999999999"></tspan></text></g></g><g class="overaxes-above"/></g></g><g class="polarlayer"/><g class="smithlayer"/><g class="ternarylayer"/><g class="geolayer"/><g class="funnelarealayer"/><g class="pielayer"/><g class="iciclelayer"/><g class="treemaplayer"/><g class="sunburstlayer"/><g class="glimages"/><defs id="topdefs-678d43"><g class="clips"/><clipPath id="legend678d43"><rect width="380" height="74" x="0" y="0"/></clipPath></defs><g class="layer-above"><g class="imagelayer"/><g class="shapelayer"/></g><g class="infolayer"><g class="legend" pointer-events="all" transform="translate(105,414.5)"><rect class="bg" shape-rendering="crispEdges" style="stroke: rgb(68, 68, 68); stroke-opacity: 1; fill: rgb(0, 0, 0); fill-opacity: 0; stroke-width: 0px;" width="380" height="74" x="0" y="0"/><g class="scrollbox" transform="" clip-path="url(#legend678d43)"><g class="groups"><g class="traces" style="opacity: 1;" transform="translate(0,20.8)"><text class="legendtext" text-anchor="start" x="40" y="8.58" style="font-family: 'Open Sans', verdana, arial, sans-serif; font-size: 22px; fill: rgb(68, 68, 68); fill-opacity: 1; white-space: pre;"><tspan style="font-weight:bold">Luonnollinen väestönlisäys</tspan></text><g class="layers" style="opacity: 1;"><g class="legendfill"/><g class="legendlines"><path class="js-line" d="M5,0h30" style="fill: none; stroke: rgb(0, 150, 81); stroke-opacity: 1; stroke-width: 6px;"/></g><g class="legendsymbols"><g class="legendpoints"><path class="scatterpts" transform="translate(20,0)" d="M3,0A3,3 0 1,1 0,-3A3,3 0 0,1 3,0Z" style="opacity: 1; stroke-width: 0px; fill: rgb(0, 150, 81); fill-opacity: 1;"/></g></g></g><rect class="legendtoggle" x="0" y="-15.8" width="377.390625" height="31.6" style="fill: rgb(0, 0, 0); fill-opacity: 0;"/></g><g class="traces" style="opacity: 1;" transform="translate(0,52.400000000000006)"><text class="legendtext" text-anchor="start" x="40" y="8.58" style="font-family: 'Open Sans', verdana, arial, sans-serif; font-size: 22px; fill: rgb(68, 68, 68); fill-opacity: 1; white-space: pre;"><tspan style="font-weight:bold">Ennakkotieto</tspan></text><g class="layers" style="opacity: 1;"><g class="legendfill"/><g class="legendlines"><path class="js-line" d="M5,0h30" style="fill: none; stroke: rgb(0, 150, 81); stroke-opacity: 1; stroke-width: 6px;"/></g><g class="legendsymbols"><g class="legendpoints"><path class="scatterpts" transform="translate(20,0)" d="M4.5,0A4.5,4.5 0 1,1 0,-4.5A4.5,4.5 0 0,1 4.5,0Z" style="opacity: 1; stroke-width: 5px; fill: rgb(255, 255, 255); fill-opacity: 1; stroke: rgb(0, 150, 81); stroke-opacity: 1;"/></g></g></g><rect class="legendtoggle" x="0" y="-15.8" width="205.484375" height="31.6" style="fill: rgb(0, 0, 0); fill-opacity: 0;"/></g></g></g><rect class="scrollbar" rx="20" ry="3" width="0" height="0" style="fill: rgb(128, 139, 164); fill-opacity: 1;" x="0" y="0"/></g><g class="g-gtitle"/><g class="g-xtitle"><text class="xtitle" x="377.5" y="405.7199882507324" text-anchor="middle" style="font-family: 'Open Sans', verdana, arial, sans-serif; font-size: 22px; fill: rgb(87, 87, 87); opacity: 1; font-weight: normal; white-space: pre;"><tspan style="font-weight:bold"></tspan></text></g><g class="g-ytitle" transform="translate(10.322265625,0)"><text class="ytitle" transform="rotate(-90,11.678124999999994,171.5)" x="11.678124999999994" y="171.5" text-anchor="middle" style="font-family: 'Open Sans', verdana, arial, sans-serif; font-size: 22px; fill: rgb(87, 87, 87); opacity: 1; font-weight: normal; white-space: pre;"><tspan style="font-weight:bold">Lkm</tspan></text></g></g></svg>