<svg class="main-svg" xmlns="http://www.w3.org/2000/svg" xmlns:xlink="http://www.w3.org/1999/xlink" width="700" height="500" style="" viewBox="0 0 700 500"><rect x="0" y="0" width="700" height="500" style="fill: rgb(0, 0, 0); fill-opacity: 0;"/><defs id="defs-329757"><g class="clips"><clipPath id="clip329757xyplot" class="plotclip"><rect width="545" height="264"/></clipPath><clipPath class="axesclip" id="clip329757x"><rect x="105" y="0" width="545" height="500"/></clipPath><clipPath class="axesclip" id="clip329757y"><rect x="0" y="50" width="700" height="264"/></clipPath><clipPath class="axesclip" id="clip329757xy"><rect x="105" y="50" width="545" height="264"/></clipPath></g><g class="gradients"/><g class="patterns"/></defs><g class="bglayer"><rect class="bg" x="100" y="45" width="555" height="274" style="fill: rgb(0, 0, 0); fill-opacity: 0; stroke-width: 0;"/></g><g class="layer-below"><g class="imagelayer"/><g class="shapelayer"/></g><g class="cartesianlayer"><g class="subplot xy"><g class="layer-subplot"><g class="shapelayer"/><g class="imagelayer"/></g><g class="gridlayer"><g class="x"/><g class="y"><path class="ygrid crisp" transform="translate(0,284.5)" d="M105,0h545" style="stroke: rgb(240, 240, 240); stroke-opacity: 1; stroke-width: 1px;"/><path class="ygrid crisp" transform="translate(0,243.45)" d="M105,0h545" style="stroke: rgb(240, 240, 240); stroke-opacity: 1; stroke-width: 1px;"/><path class="ygrid crisp" transform="translate(0,202.41)" d="M105,0h545" style="stroke: rgb(240, 240, 240); stroke-opacity: 1; stroke-width: 1px;"/><path class="ygrid crisp" transform="translate(0,161.36)" d="M105,0h545" style="stroke: rgb(240, 240, 240); stroke-opacity: 1; stroke-width: 1px;"/><path class="ygrid crisp" transform="translate(0,120.31)" d="M105,0h545" style="stroke: rgb(240, 240, 240); stroke-opacity: 1; stroke-width: 1px;"/><path class="ygrid crisp" transform="translate(0,79.26)" d="M105,0h545" style="stroke: rgb(240, 240, 240); stroke-opacity: 1; stroke-width: 1px;"/></g></g><g class="zerolinelayer"/><path class="xlines-below"/><path class="ylines-below"/><g class="overlines-below"/><g class="xaxislayer-below"/><g class="yaxislayer-below"/><g class="overaxes-below"/><g class="plot" transform="translate(105,50)" clip-path="url(#clip329757xyplot)"><g class="scatterlayer mlayer"><g class="trace scatter trace26832b" style="stroke-miterlimit: 2; opacity: 1;"><g class="fills"/><g class="errorbars"/><g class="lines"><path class="js-line" d="M31,21.05L65.37,17.77L99.73,24.34L134.1,48.15L168.46,59.64L202.83,16.95L237.2,78.52L271.56,83.45L305.93,69.49L340.29,86.73L374.66,42.4L409.03,80.98L443.39,76.88" style="vector-effect: non-scaling-stroke; fill: none; stroke: rgb(0, 150, 81); stroke-opacity: 1; stroke-width: 6px; opacity: 1;"/></g><g class="points"><path class="point" transform="translate(31,21.05)" d="M3,0A3,3 0 1,1 0,-3A3,3 0 0,1 3,0Z" style="opacity: 1; stroke-width: 0px; fill: rgb(0, 150, 81); fill-opacity: 1;"/><path class="point" transform="translate(65.37,17.77)" d="M3,0A3,3 0 1,1 0,-3A3,3 0 0,1 3,0Z" style="opacity: 1; stroke-width: 0px; fill: rgb(0, 150, 81); fill-opacity: 1;"/><path class="point" transform="translate(99.73,24.34)" d="M3,0A3,3 0 1,1 0,-3A3,3 0 0,1 3,0Z" style="opacity: 1; stroke-width: 0px; fill: rgb(0, 150, 81); fill-opacity: 1;"/><path class="point" transform="translate(134.1,48.15)" d="M3,0A3,3 0 1,1 0,-3A3,3 0 0,1 3,0Z" style="opacity: 1; stroke-width: 0px; fill: rgb(0, 150, 81); fill-opacity: 1;"/><path class="point" transform="translate(168.46,59.64)" d="M3,0A3,3 0 1,1 0,-3A3,3 0 0,1 3,0Z" style="opacity: 1; stroke-width: 0px; fill: rgb(0, 150, 81); fill-opacity: 1;"/><path class="point" transform="translate(202.83,16.95)" d="M3,0A3,3 0 1,1 0,-3A3,3 0 0,1 3,0Z" style="opacity: 1; stroke-width: 0px; fill: rgb(0, 150, 81); fill-opacity: 1;"/><path class="point" transform="translate(237.2,78.52)" d="M3,0A3,3 0 1,1 0,-3A3,3 0 0,1 3,0Z" style="opacity: 1; stroke-width: 0px; fill: rgb(0, 150, 81); fill-opacity: 1;"/><path class="point" transform="translate(271.56,83.45)" d="M3,0A3,3 0 1,1 0,-3A3,3 0 0,1 3,0Z" style="opacity: 1; stroke-width: 0px; fill: rgb(0, 150, 81); fill-opacity: 1;"/><path class="point" transform="translate(305.93,69.49)" d="M3,0A3,3 0 1,1 0,-3A3,3 0 0,1 3,0Z" style="opacity: 1; stroke-width: 0px; fill: rgb(0, 150, 81); fill-opacity: 1;"/><path class="point" transform="translate(340.29,86.73)" d="M3,0A3,3 0 1,1 0,-3A3,3 0 0,1 3,0Z" style="opacity: 1; stroke-width: 0px; fill: rgb(0, 150, 81); fill-opacity: 1;"/><path class="point" transform="translate(374.66,42.4)" d="M3,0A3,3 0 1,1 0,-3A3,3 0 0,1 3,0Z" style="opacity: 1; stroke-width: 0px; fill: rgb(0, 150, 81); fill-opacity: 1;"/><path class="point" transform="translate(409.03,80.98)" d="M3,0A3,3 0 1,1 0,-3A3,3 0 0,1 3,0Z" style="opacity: 1; stroke-width: 0px; fill: rgb(0, 150, 81); fill-opacity: 1;"/><path class="point" transform="translate(443.39,76.88)" d="M3,0A3,3 0 1,1 0,-3A3,3 0 0,1 3,0Z" style="opacity: 1; stroke-width: 0px; fill: rgb(0, 150, 81); fill-opacity: 1;"/></g><g class="text"/></g><g class="trace scatter trace42a2b7" style="stroke-miterlimit: 2; opacity: 1;"><g class="fills"/><g class="errorbars"/><g class="lines"><path class="js-line" d="M477.76,245.18L512.13,183.6" style="vector-effect: non-scaling-stroke; fill: none; stroke: rgb(0, 150, 81); stroke-opacity: 1; stroke-width: 6px; opacity: 1;"/></g><g class="points"><path class="point" transform="translate(477.76,245.18)" d="M4.5,0A4.5,4.5 0 1,1 0,-4.5A4.5,4.5 0 0,1 4.5,0Z" style="opacity: 1; stroke-width: 6px; fill: rgb(255, 255, 255); fill-opacity: 1; stroke: rgb(0, 150, 81); stroke-opacity: 1;"/><path class="point" transform="translate(512.13,183.6)" d="M4.5,0A4.5,4.5 0 1,1 0,-4.5A4.5,4.5 0 0,1 4.5,0Z" style="opacity: 1; stroke-width: 6px; fill: rgb(255, 255, 255); fill-opacity: 1; stroke: rgb(0, 150, 81); stroke-opacity: 1;"/></g><g class="text"/></g></g></g><g class="overplot"/><path class="xlines-above crisp" style="fill: none;" d="M0,0"/><path class="ylines-above crisp" style="fill: none;" d="M0,0"/><g class="overlines-above"/><g class="xaxislayer-above"><g class="xtick"><text text-anchor="end" x="0" y="342" transform="translate(136,0) rotate(-45,0,331)" style="font-family: 'Open Sans', verdana, arial, sans-serif; font-size: 22px; fill: rgb(87, 87, 87); fill-opacity: 1; white-space: pre; opacity: 1;"><tspan class="line" dy="0em" x="0" y="342"><tspan style="font-weight:bold">2011</tspan></tspan><tspan class="line" dy="1.3em" x="0" y="342"></tspan></text></g><g class="xtick"><text text-anchor="end" x="0" y="342" transform="translate(239.1,0) rotate(-45,0,331)" style="font-family: 'Open Sans', verdana, arial, sans-serif; font-size: 22px; fill: rgb(87, 87, 87); fill-opacity: 1; white-space: pre; opacity: 1;"><tspan class="line" dy="0em" x="0" y="342"><tspan style="font-weight:bold">2014</tspan></tspan><tspan class="line" dy="1.3em" x="0" y="342"></tspan></text></g><g class="xtick"><text text-anchor="end" x="0" y="342" transform="translate(342.2,0) rotate(-45,0,331)" style="font-family: 'Open Sans', verdana, arial, sans-serif; font-size: 22px; fill: rgb(87, 87, 87); fill-opacity: 1; white-space: pre; opacity: 1;"><tspan class="line" dy="0em" x="0" y="342"><tspan style="font-weight:bold">2017</tspan></tspan><tspan class="line" dy="1.3em" x="0" y="342"></tspan></text></g><g class="xtick"><text text-anchor="end" x="0" y="342" transform="translate(445.29,0) rotate(-45,0,331)" style="font-family: 'Open Sans', verdana, arial, sans-serif; font-size: 22px; fill: rgb(87, 87, 87); fill-opacity: 1; white-space: pre; opacity: 1;"><tspan class="line" dy="0em" x="0" y="342"><tspan style="font-weight:bold">2020</tspan></tspan><tspan class="line" dy="1.3em" x="0" y="342"></tspan></text></g><g class="xtick"><text text-anchor="end" x="0" y="342" transform="translate(548.39,0) rotate(-45,0,331)" style="font-family: 'Open Sans', verdana, arial, sans-serif; font-size: 22px; fill: rgb(87, 87, 87); fill-opacity: 1; white-space: pre; opacity: 1;"><tspan class="line" dy="0em" x="0" y="342"><tspan style="font-weight:bold">2023</tspan></tspan><tspan class="line" dy="1.3em" x="0" y="342"></tspan></text></g></g><g class="yaxislayer-above"><g class="ytick"><text text-anchor="end" x="99" y="7.699999999999999" transform="translate(0,284.5)translate(0,-14.3)" style="font-family: 'Open Sans', verdana, arial, sans-serif; font-size: 22px; fill: rgb(87, 87, 87); fill-opacity: 1; white-space: pre; opacity: 1;"><tspan class="line" dy="0em" x="99" y="7.699999999999999"><tspan style="font-weight:bold">100</tspan></tspan><tspan class="line" dy="1.3em" x="99" y="7.699999999999999"></tspan></text></g><g class="ytick"><text text-anchor="end" x="99" y="7.699999999999999" style="font-family: 'Open Sans', verdana, arial, sans-serif; font-size: 22px; fill: rgb(87, 87, 87); fill-opacity: 1; white-space: pre; opacity: 1;" transform="translate(0,243.45)translate(0,-14.3)"><tspan class="line" dy="0em" x="99" y="7.699999999999999"><tspan style="font-weight:bold">150</tspan></tspan><tspan class="line" dy="1.3em" x="99" y="7.699999999999999"></tspan></text></g><g class="ytick"><text text-anchor="end" x="99" y="7.699999999999999" style="font-family: 'Open Sans', verdana, arial, sans-serif; font-size: 22px; fill: rgb(87, 87, 87); fill-opacity: 1; white-space: pre; opacity: 1;" transform="translate(0,202.41)translate(0,-14.3)"><tspan class="line" dy="0em" x="99" y="7.699999999999999"><tspan style="font-weight:bold">200</tspan></tspan><tspan class="line" dy="1.3em" x="99" y="7.699999999999999"></tspan></text></g><g class="ytick"><text text-anchor="end" x="99" y="7.699999999999999" style="font-family: 'Open Sans', verdana, arial, sans-serif; font-size: 22px; fill: rgb(87, 87, 87); fill-opacity: 1; white-space: pre; opacity: 1;" transform="translate(0,161.36)translate(0,-14.3)"><tspan class="line" dy="0em" x="99" y="7.699999999999999"><tspan style="font-weight:bold">250</tspan></tspan><tspan class="line" dy="1.3em" x="99" y="7.699999999999999"></tspan></text></g><g class="ytick"><text text-anchor="end" x="99" y="7.699999999999999" style="font-family: 'Open Sans', verdana, arial, sans-serif; font-size: 22px; fill: rgb(87, 87, 87); fill-opacity: 1; white-space: pre; opacity: 1;" transform="translate(0,120.31)translate(0,-14.3)"><tspan class="line" dy="0em" x="99" y="7.699999999999999"><tspan style="font-weight:bold">300</tspan></tspan><tspan class="line" dy="1.3em" x="99" y="7.699999999999999"></tspan></text></g><g class="ytick"><text text-anchor="end" x="99" y="7.699999999999999" style="font-family: 'Open Sans', verdana, arial, sans-serif; font-size: 22px; fill: rgb(87, 87, 87); fill-opacity: 1; white-space: pre; opacity: 1;" transform="translate(0,79.26)translate(0,-14.3)"><tspan class="line" dy="0em" x="99" y="7.699999999999999"><tspan style="font-weight:bold">350</tspan></tspan><tspan class="line" dy="1.3em" x="99" y="7.699999999999999"></tspan></text></g></g><g class="overaxes-above"/></g></g><g class="polarlayer"/><g class="smithlayer"/><g class="ternarylayer"/><g class="geolayer"/><g class="funnelarealayer"/><g class="pielayer"/><g class="iciclelayer"/><g class="treemaplayer"/><g class="sunburstlayer"/><g class="glimages"/><defs id="topdefs-329757"><g class="clips"/><clipPath id="legend329757"><rect width="471" height="42" x="0" y="0"/></clipPath></defs><g class="layer-above"><g class="imagelayer"/><g class="shapelayer"/></g><g class="infolayer"><g class="legend" pointer-events="all" transform="translate(105,446)"><rect class="bg" shape-rendering="crispEdges" style="stroke: rgb(68, 68, 68); stroke-opacity: 1; fill: rgb(0, 0, 0); fill-opacity: 0; stroke-width: 0px;" width="471" height="42" x="0" y="0"/><g class="scrollbox" transform="" clip-path="url(#legend329757)"><g class="groups"><g class="traces" style="opacity: 1;" transform="translate(0,20.8)"><text class="legendtext" text-anchor="start" x="40" y="8.58" style="font-family: 'Open Sans', verdana, arial, sans-serif; font-size: 22px; fill: rgb(68, 68, 68); fill-opacity: 1; white-space: pre;"><tspan style="font-weight:bold">Syntyneet</tspan></text><g class="layers" style="opacity: 1;"><g class="legendfill"/><g class="legendlines"><path class="js-line" d="M5,0h30" style="fill: none; stroke: rgb(0, 150, 81); stroke-opacity: 1; stroke-width: 6px;"/></g><g class="legendsymbols"><g class="legendpoints"><path class="scatterpts" transform="translate(20,0)" d="M3,0A3,3 0 1,1 0,-3A3,3 0 0,1 3,0Z" style="opacity: 1; stroke-width: 0px; fill: rgb(0, 150, 81); fill-opacity: 1;"/></g></g></g><rect class="legendtoggle" x="0" y="-15.8" width="167.390625" height="31.6" style="fill: rgb(0, 0, 0); fill-opacity: 0;"/></g><g class="traces" style="opacity: 1;" transform="translate(169.890625,20.8)"><text class="legendtext" text-anchor="start" x="40" y="8.58" style="font-family: 'Open Sans', verdana, arial, sans-serif; font-size: 22px; fill: rgb(68, 68, 68); fill-opacity: 1; white-space: pre;"><tspan style="font-weight:bold">Ennakkotieto (kum.)</tspan></text><g class="layers" style="opacity: 1;"><g class="legendfill"/><g class="legendlines"><path class="js-line" d="M5,0h30" style="fill: none; stroke: rgb(0, 150, 81); stroke-opacity: 1; stroke-width: 6px;"/></g><g class="legendsymbols"><g class="legendpoints"><path class="scatterpts" transform="translate(20,0)" d="M4.5,0A4.5,4.5 0 1,1 0,-4.5A4.5,4.5 0 0,1 4.5,0Z" style="opacity: 1; stroke-width: 5px; fill: rgb(255, 255, 255); fill-opacity: 1; stroke: rgb(0, 150, 81); stroke-opacity: 1;"/></g></g></g><rect class="legendtoggle" x="0" y="-15.8" width="298.5625" height="31.6" style="fill: rgb(0, 0, 0); fill-opacity: 0;"/></g></g></g><rect class="scrollbar" rx="20" ry="3" width="0" height="0" style="fill: rgb(128, 139, 164); fill-opacity: 1;" x="0" y="0"/></g><g class="g-gtitle"/><g class="g-xtitle"><text class="xtitle" x="377.5" y="426.7199882507324" text-anchor="middle" style="font-family: 'Open Sans', verdana, arial, sans-serif; font-size: 22px; fill: rgb(87, 87, 87); opacity: 1; font-weight: normal; white-space: pre;"><tspan style="font-weight:bold"></tspan></text></g><g class="g-ytitle" transform="translate(10.322265625,0)"><text class="ytitle" transform="rotate(-90,11.678124999999994,182)" x="11.678124999999994" y="182" text-anchor="middle" style="font-family: 'Open Sans', verdana, arial, sans-serif; font-size: 22px; fill: rgb(87, 87, 87); opacity: 1; font-weight: normal; white-space: pre;"><tspan style="font-weight:bold">Lkm</tspan></text></g></g></svg>