<svg class="main-svg" xmlns="http://www.w3.org/2000/svg" xmlns:xlink="http://www.w3.org/1999/xlink" width="700" height="500" style="" viewBox="0 0 700 500"><rect x="0" y="0" width="700" height="500" style="fill: rgb(0, 0, 0); fill-opacity: 0;"/><defs id="defs-a45def"><g class="clips"><clipPath id="clipa45defxyplot" class="plotclip"><rect width="529" height="264"/></clipPath><clipPath class="axesclip" id="clipa45defx"><rect x="121" y="0" width="529" height="500"/></clipPath><clipPath class="axesclip" id="clipa45defy"><rect x="0" y="50" width="700" height="264"/></clipPath><clipPath class="axesclip" id="clipa45defxy"><rect x="121" y="50" width="529" height="264"/></clipPath></g><g class="gradients"/><g class="patterns"/></defs><g class="bglayer"><rect class="bg" x="116" y="45" width="539" height="274" style="fill: rgb(0, 0, 0); fill-opacity: 0; stroke-width: 0;"/></g><g class="layer-below"><g class="imagelayer"/><g class="shapelayer"/></g><g class="cartesianlayer"><g class="subplot xy"><g class="layer-subplot"><g class="shapelayer"/><g class="imagelayer"/></g><g class="gridlayer"><g class="x"/><g class="y"><path class="ygrid crisp" transform="translate(0,270.59000000000003)" d="M121,0h529" style="stroke: rgb(240, 240, 240); stroke-opacity: 1; stroke-width: 1px;"/><path class="ygrid crisp" transform="translate(0,225.51)" d="M121,0h529" style="stroke: rgb(240, 240, 240); stroke-opacity: 1; stroke-width: 1px;"/><path class="ygrid crisp" transform="translate(0,180.42)" d="M121,0h529" style="stroke: rgb(240, 240, 240); stroke-opacity: 1; stroke-width: 1px;"/><path class="ygrid crisp" transform="translate(0,135.34)" d="M121,0h529" style="stroke: rgb(240, 240, 240); stroke-opacity: 1; stroke-width: 1px;"/><path class="ygrid crisp" transform="translate(0,90.25)" d="M121,0h529" style="stroke: rgb(240, 240, 240); stroke-opacity: 1; stroke-width: 1px;"/></g></g><g class="zerolinelayer"/><path class="xlines-below"/><path class="ylines-below"/><g class="overlines-below"/><g class="xaxislayer-below"/><g class="yaxislayer-below"/><g class="overaxes-below"/><g class="plot" transform="translate(121,50)" clip-path="url(#clipa45defxyplot)"><g class="scatterlayer mlayer"><g class="trace scatter trace5d1a50" style="stroke-miterlimit: 2; opacity: 1;"><g class="fills"/><g class="errorbars"/><g class="lines"><path class="js-line" d="M0,225.55L23,241.78L46,246.74L69,250.8L92,203.01L115,198.95L138,180.02L161,193.99L184,215.18L207,233.22L230,168.29L253,135.38L276,187.68L299,183.17L322,175.06L345,161.08L368,58.29L391,71.81L414,63.7L437,72.71L460,97.51L483,111.94L506,30.33L529,13.2" style="vector-effect: non-scaling-stroke; fill: none; stroke: rgb(0, 150, 81); stroke-opacity: 1; stroke-width: 6px; opacity: 1;"/></g><g class="points"/><g class="text"/></g></g></g><g class="overplot"/><path class="xlines-above crisp" style="fill: none;" d="M0,0"/><path class="ylines-above crisp" style="fill: none;" d="M0,0"/><g class="overlines-above"/><g class="xaxislayer-above"><g class="xtick"><text text-anchor="end" x="0" y="342" transform="translate(121,0) rotate(-45,0,331)" style="font-family: 'Open Sans', verdana, arial, sans-serif; font-size: 22px; fill: rgb(87, 87, 87); fill-opacity: 1; white-space: pre; opacity: 1;"><tspan class="line" dy="0em" x="0" y="342"><tspan style="font-weight:bold">2022M08</tspan></tspan><tspan class="line" dy="1.3em" x="0" y="342"></tspan></text></g><g class="xtick"><text text-anchor="end" x="0" y="342" transform="translate(190,0) rotate(-45,0,331)" style="font-family: 'Open Sans', verdana, arial, sans-serif; font-size: 22px; fill: rgb(87, 87, 87); fill-opacity: 1; white-space: pre; opacity: 1;"><tspan class="line" dy="0em" x="0" y="342"><tspan style="font-weight:bold">2022M11</tspan></tspan><tspan class="line" dy="1.3em" x="0" y="342"></tspan></text></g><g class="xtick"><text text-anchor="end" x="0" y="342" transform="translate(259,0) rotate(-45,0,331)" style="font-family: 'Open Sans', verdana, arial, sans-serif; font-size: 22px; fill: rgb(87, 87, 87); fill-opacity: 1; white-space: pre; opacity: 1;"><tspan class="line" dy="0em" x="0" y="342"><tspan style="font-weight:bold">2023M02</tspan></tspan><tspan class="line" dy="1.3em" x="0" y="342"></tspan></text></g><g class="xtick"><text text-anchor="end" x="0" y="342" transform="translate(328,0) rotate(-45,0,331)" style="font-family: 'Open Sans', verdana, arial, sans-serif; font-size: 22px; fill: rgb(87, 87, 87); fill-opacity: 1; white-space: pre; opacity: 1;"><tspan class="line" dy="0em" x="0" y="342"><tspan style="font-weight:bold">2023M05</tspan></tspan><tspan class="line" dy="1.3em" x="0" y="342"></tspan></text></g><g class="xtick"><text text-anchor="end" x="0" y="342" transform="translate(397,0) rotate(-45,0,331)" style="font-family: 'Open Sans', verdana, arial, sans-serif; font-size: 22px; fill: rgb(87, 87, 87); fill-opacity: 1; white-space: pre; opacity: 1;"><tspan class="line" dy="0em" x="0" y="342"><tspan style="font-weight:bold">2023M08</tspan></tspan><tspan class="line" dy="1.3em" x="0" y="342"></tspan></text></g><g class="xtick"><text text-anchor="end" x="0" y="342" transform="translate(466,0) rotate(-45,0,331)" style="font-family: 'Open Sans', verdana, arial, sans-serif; font-size: 22px; fill: rgb(87, 87, 87); fill-opacity: 1; white-space: pre; opacity: 1;"><tspan class="line" dy="0em" x="0" y="342"><tspan style="font-weight:bold">2023M11</tspan></tspan><tspan class="line" dy="1.3em" x="0" y="342"></tspan></text></g><g class="xtick"><text text-anchor="end" x="0" y="342" transform="translate(535,0) rotate(-45,0,331)" style="font-family: 'Open Sans', verdana, arial, sans-serif; font-size: 22px; fill: rgb(87, 87, 87); fill-opacity: 1; white-space: pre; opacity: 1;"><tspan class="line" dy="0em" x="0" y="342"><tspan style="font-weight:bold">2024M02</tspan></tspan><tspan class="line" dy="1.3em" x="0" y="342"></tspan></text></g><g class="xtick"><text text-anchor="end" x="0" y="342" transform="translate(604,0) rotate(-45,0,331)" style="font-family: 'Open Sans', verdana, arial, sans-serif; font-size: 22px; fill: rgb(87, 87, 87); fill-opacity: 1; white-space: pre; opacity: 1;"><tspan class="line" dy="0em" x="0" y="342"><tspan style="font-weight:bold">2024M05</tspan></tspan><tspan class="line" dy="1.3em" x="0" y="342"></tspan></text></g></g><g class="yaxislayer-above"><g class="ytick"><text text-anchor="end" x="115" y="7.699999999999999" transform="translate(0,270.59000000000003)translate(0,-14.3)" style="font-family: 'Open Sans', verdana, arial, sans-serif; font-size: 22px; fill: rgb(87, 87, 87); fill-opacity: 1; white-space: pre; opacity: 1;"><tspan class="line" dy="0em" x="115" y="7.699999999999999"><tspan style="font-weight:bold">1000</tspan></tspan><tspan class="line" dy="1.3em" x="115" y="7.699999999999999"></tspan></text></g><g class="ytick"><text text-anchor="end" x="115" y="7.699999999999999" style="font-family: 'Open Sans', verdana, arial, sans-serif; font-size: 22px; fill: rgb(87, 87, 87); fill-opacity: 1; white-space: pre; opacity: 1;" transform="translate(0,225.51)translate(0,-14.3)"><tspan class="line" dy="0em" x="115" y="7.699999999999999"><tspan style="font-weight:bold">1100</tspan></tspan><tspan class="line" dy="1.3em" x="115" y="7.699999999999999"></tspan></text></g><g class="ytick"><text text-anchor="end" x="115" y="7.699999999999999" style="font-family: 'Open Sans', verdana, arial, sans-serif; font-size: 22px; fill: rgb(87, 87, 87); fill-opacity: 1; white-space: pre; opacity: 1;" transform="translate(0,180.42)translate(0,-14.3)"><tspan class="line" dy="0em" x="115" y="7.699999999999999"><tspan style="font-weight:bold">1200</tspan></tspan><tspan class="line" dy="1.3em" x="115" y="7.699999999999999"></tspan></text></g><g class="ytick"><text text-anchor="end" x="115" y="7.699999999999999" style="font-family: 'Open Sans', verdana, arial, sans-serif; font-size: 22px; fill: rgb(87, 87, 87); fill-opacity: 1; white-space: pre; opacity: 1;" transform="translate(0,135.34)translate(0,-14.3)"><tspan class="line" dy="0em" x="115" y="7.699999999999999"><tspan style="font-weight:bold">1300</tspan></tspan><tspan class="line" dy="1.3em" x="115" y="7.699999999999999"></tspan></text></g><g class="ytick"><text text-anchor="end" x="115" y="7.699999999999999" style="font-family: 'Open Sans', verdana, arial, sans-serif; font-size: 22px; fill: rgb(87, 87, 87); fill-opacity: 1; white-space: pre; opacity: 1;" transform="translate(0,90.25)translate(0,-14.3)"><tspan class="line" dy="0em" x="115" y="7.699999999999999"><tspan style="font-weight:bold">1400</tspan></tspan><tspan class="line" dy="1.3em" x="115" y="7.699999999999999"></tspan></text></g></g><g class="overaxes-above"/></g></g><g class="polarlayer"/><g class="smithlayer"/><g class="ternarylayer"/><g class="geolayer"/><g class="funnelarealayer"/><g class="pielayer"/><g class="iciclelayer"/><g class="treemaplayer"/><g class="sunburstlayer"/><g class="glimages"/><defs id="topdefs-a45def"><g class="clips"/><clipPath id="legenda45def"><rect width="616" height="42" x="0" y="0"/></clipPath></defs><g class="layer-above"><g class="imagelayer"/><g class="shapelayer"/></g><g class="infolayer"><g class="legend" pointer-events="all" transform="translate(84,446)"><rect class="bg" shape-rendering="crispEdges" style="stroke: rgb(68, 68, 68); stroke-opacity: 1; fill: rgb(0, 0, 0); fill-opacity: 0; stroke-width: 0px;" width="616" height="42" x="0" y="0"/><g class="scrollbox" transform="" clip-path="url(#legenda45def)"><g class="groups"><g class="traces" style="opacity: 1;" transform="translate(0,20.8)"><text class="legendtext" text-anchor="start" x="40" y="8.58" style="font-family: 'Open Sans', verdana, arial, sans-serif; font-size: 22px; fill: rgb(68, 68, 68); fill-opacity: 1; white-space: pre;"><tspan style="font-weight:bold">Työttömät työnhakijat laskentapäivänä (lkm.)</tspan></text><g class="layers" style="opacity: 1;"><g class="legendfill"/><g class="legendlines"><path class="js-line" d="M5,0h30" style="fill: none; stroke: rgb(0, 150, 81); stroke-opacity: 1; stroke-width: 6px;"/></g><g class="legendsymbols"><g class="legendpoints"/></g></g><rect class="legendtoggle" x="0" y="-15.8" width="613.375" height="31.6" style="fill: rgb(0, 0, 0); fill-opacity: 0;"/></g></g></g><rect class="scrollbar" rx="20" ry="3" width="0" height="0" style="fill: rgb(128, 139, 164); fill-opacity: 1;" x="0" y="0"/></g><g class="g-gtitle"/><g class="g-xtitle"><text class="xtitle" x="385.5" y="463.5884765625" text-anchor="middle" style="font-family: 'Open Sans', verdana, arial, sans-serif; font-size: 22px; fill: rgb(87, 87, 87); opacity: 1; font-weight: normal; white-space: pre;"><tspan style="font-weight:bold"></tspan></text></g><g class="g-ytitle" transform="translate(9.962890625,0)"><text class="ytitle" transform="rotate(-90,12.037499999999994,182)" x="12.037499999999994" y="182" text-anchor="middle" style="font-family: 'Open Sans', verdana, arial, sans-serif; font-size: 22px; fill: rgb(87, 87, 87); opacity: 1; font-weight: normal; white-space: pre;"><tspan style="font-weight:bold">Lkm</tspan></text></g></g></svg>