<svg class="main-svg" xmlns="http://www.w3.org/2000/svg" xmlns:xlink="http://www.w3.org/1999/xlink" width="700" height="500" style="" viewBox="0 0 700 500"><rect x="0" y="0" width="700" height="500" style="fill: rgb(0, 0, 0); fill-opacity: 0;"/><defs id="defs-940682"><g class="clips"><clipPath id="clip940682xyplot" class="plotclip"><rect width="529" height="264"/></clipPath><clipPath class="axesclip" id="clip940682x"><rect x="121" y="0" width="529" height="500"/></clipPath><clipPath class="axesclip" id="clip940682y"><rect x="0" y="50" width="700" height="264"/></clipPath><clipPath class="axesclip" id="clip940682xy"><rect x="121" y="50" width="529" height="264"/></clipPath></g><g class="gradients"/><g class="patterns"/></defs><g class="bglayer"><rect class="bg" x="116" y="45" width="539" height="274" style="fill: rgb(0, 0, 0); fill-opacity: 0; stroke-width: 0;"/></g><g class="layer-below"><g class="imagelayer"/><g class="shapelayer"/></g><g class="cartesianlayer"><g class="subplot xy"><g class="layer-subplot"><g class="shapelayer"/><g class="imagelayer"/></g><g class="gridlayer"><g class="x"/><g class="y"><path class="ygrid crisp" transform="translate(0,308.24)" d="M121,0h529" style="stroke: rgb(240, 240, 240); stroke-opacity: 1; stroke-width: 1px;"/><path class="ygrid crisp" transform="translate(0,255.09)" d="M121,0h529" style="stroke: rgb(240, 240, 240); stroke-opacity: 1; stroke-width: 1px;"/><path class="ygrid crisp" transform="translate(0,201.93)" d="M121,0h529" style="stroke: rgb(240, 240, 240); stroke-opacity: 1; stroke-width: 1px;"/><path class="ygrid crisp" transform="translate(0,148.78)" d="M121,0h529" style="stroke: rgb(240, 240, 240); stroke-opacity: 1; stroke-width: 1px;"/><path class="ygrid crisp" transform="translate(0,95.62)" d="M121,0h529" style="stroke: rgb(240, 240, 240); stroke-opacity: 1; stroke-width: 1px;"/></g></g><g class="zerolinelayer"/><path class="xlines-below"/><path class="ylines-below"/><g class="overlines-below"/><g class="xaxislayer-below"/><g class="yaxislayer-below"/><g class="overaxes-below"/><g class="plot" transform="translate(121,50)" clip-path="url(#clip940682xyplot)"><g class="scatterlayer mlayer"><g class="trace scatter trace821349" style="stroke-miterlimit: 2; opacity: 1;"><g class="fills"/><g class="errorbars"/><g class="lines"><path class="js-line" d="M0,247.08L23,250.8L46,241.23L69,225.82L92,222.1L115,212.53L138,198.18L161,172.66L184,171.6L207,169.47L230,150.34L253,129.61L276,124.29L322,100.37L345,81.24L368,87.08L391,71.14L414,51.47L437,33.93L460,37.65L483,29.15L506,13.73L529,13.2" style="vector-effect: non-scaling-stroke; fill: none; stroke: rgb(0, 150, 81); stroke-opacity: 1; stroke-width: 6px; opacity: 1;"/></g><g class="points"/><g class="text"/></g></g></g><g class="overplot"/><path class="xlines-above crisp" style="fill: none;" d="M0,0"/><path class="ylines-above crisp" style="fill: none;" d="M0,0"/><g class="overlines-above"/><g class="xaxislayer-above"><g class="xtick"><text text-anchor="end" x="0" y="342" transform="translate(121,0) rotate(-45,0,331)" style="font-family: 'Open Sans', verdana, arial, sans-serif; font-size: 22px; fill: rgb(87, 87, 87); fill-opacity: 1; white-space: pre; opacity: 1;"><tspan class="line" dy="0em" x="0" y="342"><tspan style="font-weight:bold">2018Q2</tspan></tspan><tspan class="line" dy="1.3em" x="0" y="342"></tspan></text></g><g class="xtick"><text text-anchor="end" x="0" y="342" transform="translate(190,0) rotate(-45,0,331)" style="font-family: 'Open Sans', verdana, arial, sans-serif; font-size: 22px; fill: rgb(87, 87, 87); fill-opacity: 1; white-space: pre; opacity: 1;"><tspan class="line" dy="0em" x="0" y="342"><tspan style="font-weight:bold">2019Q1</tspan></tspan><tspan class="line" dy="1.3em" x="0" y="342"></tspan></text></g><g class="xtick"><text text-anchor="end" x="0" y="342" transform="translate(259,0) rotate(-45,0,331)" style="font-family: 'Open Sans', verdana, arial, sans-serif; font-size: 22px; fill: rgb(87, 87, 87); fill-opacity: 1; white-space: pre; opacity: 1;"><tspan class="line" dy="0em" x="0" y="342"><tspan style="font-weight:bold">2019Q4</tspan></tspan><tspan class="line" dy="1.3em" x="0" y="342"></tspan></text></g><g class="xtick"><text text-anchor="end" x="0" y="342" transform="translate(328,0) rotate(-45,0,331)" style="font-family: 'Open Sans', verdana, arial, sans-serif; font-size: 22px; fill: rgb(87, 87, 87); fill-opacity: 1; white-space: pre; opacity: 1;"><tspan class="line" dy="0em" x="0" y="342"><tspan style="font-weight:bold">2020Q3</tspan></tspan><tspan class="line" dy="1.3em" x="0" y="342"></tspan></text></g><g class="xtick"><text text-anchor="end" x="0" y="342" transform="translate(397,0) rotate(-45,0,331)" style="font-family: 'Open Sans', verdana, arial, sans-serif; font-size: 22px; fill: rgb(87, 87, 87); fill-opacity: 1; white-space: pre; opacity: 1;"><tspan class="line" dy="0em" x="0" y="342"><tspan style="font-weight:bold">2021Q2</tspan></tspan><tspan class="line" dy="1.3em" x="0" y="342"></tspan></text></g><g class="xtick"><text text-anchor="end" x="0" y="342" transform="translate(466,0) rotate(-45,0,331)" style="font-family: 'Open Sans', verdana, arial, sans-serif; font-size: 22px; fill: rgb(87, 87, 87); fill-opacity: 1; white-space: pre; opacity: 1;"><tspan class="line" dy="0em" x="0" y="342"><tspan style="font-weight:bold">2022Q1</tspan></tspan><tspan class="line" dy="1.3em" x="0" y="342"></tspan></text></g><g class="xtick"><text text-anchor="end" x="0" y="342" transform="translate(535,0) rotate(-45,0,331)" style="font-family: 'Open Sans', verdana, arial, sans-serif; font-size: 22px; fill: rgb(87, 87, 87); fill-opacity: 1; white-space: pre; opacity: 1;"><tspan class="line" dy="0em" x="0" y="342"><tspan style="font-weight:bold">2022Q4</tspan></tspan><tspan class="line" dy="1.3em" x="0" y="342"></tspan></text></g><g class="xtick"><text text-anchor="end" x="0" y="342" transform="translate(604,0) rotate(-45,0,331)" style="font-family: 'Open Sans', verdana, arial, sans-serif; font-size: 22px; fill: rgb(87, 87, 87); fill-opacity: 1; white-space: pre; opacity: 1;"><tspan class="line" dy="0em" x="0" y="342"><tspan style="font-weight:bold">2023Q3</tspan></tspan><tspan class="line" dy="1.3em" x="0" y="342"></tspan></text></g></g><g class="yaxislayer-above"><g class="ytick"><text text-anchor="end" x="115" y="7.699999999999999" transform="translate(0,308.24)translate(0,-14.3)" style="font-family: 'Open Sans', verdana, arial, sans-serif; font-size: 22px; fill: rgb(87, 87, 87); fill-opacity: 1; white-space: pre; opacity: 1;"><tspan class="line" dy="0em" x="115" y="7.699999999999999"><tspan style="font-weight:bold">2100</tspan></tspan><tspan class="line" dy="1.3em" x="115" y="7.699999999999999"></tspan></text></g><g class="ytick"><text text-anchor="end" x="115" y="7.699999999999999" style="font-family: 'Open Sans', verdana, arial, sans-serif; font-size: 22px; fill: rgb(87, 87, 87); fill-opacity: 1; white-space: pre; opacity: 1;" transform="translate(0,255.09)translate(0,-14.3)"><tspan class="line" dy="0em" x="115" y="7.699999999999999"><tspan style="font-weight:bold">2200</tspan></tspan><tspan class="line" dy="1.3em" x="115" y="7.699999999999999"></tspan></text></g><g class="ytick"><text text-anchor="end" x="115" y="7.699999999999999" style="font-family: 'Open Sans', verdana, arial, sans-serif; font-size: 22px; fill: rgb(87, 87, 87); fill-opacity: 1; white-space: pre; opacity: 1;" transform="translate(0,201.93)translate(0,-14.3)"><tspan class="line" dy="0em" x="115" y="7.699999999999999"><tspan style="font-weight:bold">2300</tspan></tspan><tspan class="line" dy="1.3em" x="115" y="7.699999999999999"></tspan></text></g><g class="ytick"><text text-anchor="end" x="115" y="7.699999999999999" style="font-family: 'Open Sans', verdana, arial, sans-serif; font-size: 22px; fill: rgb(87, 87, 87); fill-opacity: 1; white-space: pre; opacity: 1;" transform="translate(0,148.78)translate(0,-14.3)"><tspan class="line" dy="0em" x="115" y="7.699999999999999"><tspan style="font-weight:bold">2400</tspan></tspan><tspan class="line" dy="1.3em" x="115" y="7.699999999999999"></tspan></text></g><g class="ytick"><text text-anchor="end" x="115" y="7.699999999999999" style="font-family: 'Open Sans', verdana, arial, sans-serif; font-size: 22px; fill: rgb(87, 87, 87); fill-opacity: 1; white-space: pre; opacity: 1;" transform="translate(0,95.62)translate(0,-14.3)"><tspan class="line" dy="0em" x="115" y="7.699999999999999"><tspan style="font-weight:bold">2500</tspan></tspan><tspan class="line" dy="1.3em" x="115" y="7.699999999999999"></tspan></text></g></g><g class="overaxes-above"/></g></g><g class="polarlayer"/><g class="smithlayer"/><g class="ternarylayer"/><g class="geolayer"/><g class="funnelarealayer"/><g class="pielayer"/><g class="iciclelayer"/><g class="treemaplayer"/><g class="sunburstlayer"/><g class="glimages"/><defs id="topdefs-940682"><g class="clips"/><clipPath id="legend940682"><rect width="188" height="42" x="0" y="0"/></clipPath></defs><g class="layer-above"><g class="imagelayer"/><g class="shapelayer"/></g><g class="infolayer"><g class="legend" pointer-events="all" transform="translate(121,446)"><rect class="bg" shape-rendering="crispEdges" style="stroke: rgb(68, 68, 68); stroke-opacity: 1; fill: rgb(0, 0, 0); fill-opacity: 0; stroke-width: 0px;" width="188" height="42" x="0" y="0"/><g class="scrollbox" transform="" clip-path="url(#legend940682)"><g class="groups"><g class="traces" style="opacity: 1;" transform="translate(0,20.8)"><text class="legendtext" text-anchor="start" x="40" y="8.58" style="font-family: 'Open Sans', verdana, arial, sans-serif; font-size: 22px; fill: rgb(68, 68, 68); fill-opacity: 1; white-space: pre;"><tspan style="font-weight:bold">Yrityskanta</tspan></text><g class="layers" style="opacity: 1;"><g class="legendfill"/><g class="legendlines"><path class="js-line" d="M5,0h30" style="fill: none; stroke: rgb(0, 150, 81); stroke-opacity: 1; stroke-width: 6px;"/></g><g class="legendsymbols"><g class="legendpoints"/></g></g><rect class="legendtoggle" x="0" y="-15.8" width="185.078125" height="31.6" style="fill: rgb(0, 0, 0); fill-opacity: 0;"/></g></g></g><rect class="scrollbar" rx="20" ry="3" width="0" height="0" style="fill: rgb(128, 139, 164); fill-opacity: 1;" x="0" y="0"/></g><g class="g-gtitle"/><g class="g-xtitle"><text class="xtitle" x="385.5" y="451.0044921875" text-anchor="middle" style="font-family: 'Open Sans', verdana, arial, sans-serif; font-size: 22px; fill: rgb(87, 87, 87); opacity: 1; font-weight: normal; white-space: pre;"><tspan style="font-weight:bold"></tspan></text></g><g class="g-ytitle" transform="translate(9.962890625,0)"><text class="ytitle" transform="rotate(-90,12.037499999999994,182)" x="12.037499999999994" y="182" text-anchor="middle" style="font-family: 'Open Sans', verdana, arial, sans-serif; font-size: 22px; fill: rgb(87, 87, 87); opacity: 1; font-weight: normal; white-space: pre;"><tspan style="font-weight:bold">Lkm</tspan></text></g></g></svg>