<?xml version="1.0" encoding="UTF-8" standalone="no"?>
<!-- Uploaded to: SVG Repo, www.svgrepo.com, Generator: SVG Repo Mixer Tools -->

<svg
   width="40.655178"
   height="36.197796"
   viewBox="0 0 1.2196553 1.0859339"
   fill="none"
   version="1.1"
   id="svg1"
   xmlns="http://www.w3.org/2000/svg"
   xmlns:svg="http://www.w3.org/2000/svg">
  <defs
     id="defs1" />
  <g
     id="Navigation / Building_03"
     transform="matrix(0.05543888,0,0,0.0603218,-0.05543888,-0.18082391)">
    <path
       id="Vector"
       d="m 2,20 h 2 m 0,0 H 15 M 4,20 V 14.3682 C 4,13.8428 4,13.58 4.063,13.335 4.11883,13.1178 4.21073,12.9118 4.33496,12.7252 4.47505,12.5147 4.67114,12.3384 5.06152,11.9877 L 7.3631,9.91997 C 8.11784,9.24192 8.49549,8.90264 8.92249,8.77393 c 0.37645,-0.11348 0.77821,-0.11348 1.15461,0 0.4274,0.12882 0.8056,0.46827 1.5616,1.14746 l 2.3,2.06631 c 0.3908,0.3511 0.5858,0.5269 0.726,0.7375 0.1242,0.1866 0.216,0.3926 0.2718,0.6098 C 14.9995,13.58 15,13.8428 15,14.3682 V 20 m 0,0 h 5 m 0,0 h 2 m -2,0 V 7.19691 C 20,6.07899 20,5.5192 19.7822,5.0918 19.5905,4.71547 19.2837,4.40973 18.9074,4.21799 18.4796,4 17.9203,4 16.8002,4 h -6.6 C 9.08009,4 8.51962,4 8.0918,4.21799 7.71547,4.40973 7.40973,4.71547 7.21799,5.0918 7,5.51962 7,6.08009 7,7.2002 v 2.8"
       stroke="#000000"
       stroke-width="2"
       stroke-linecap="round"
       stroke-linejoin="round" />
  </g>
</svg>
